<!--?xml version="1.0" standalone="no"?-->              <svg id="sw-js-blob-svg" viewBox="0 0 100 100" xmlns="http://www.w3.org/2000/svg" version="1.1">                    <defs>                         <linearGradient id="sw-gradient" x1="0" x2="1" y1="1" y2="0">                            <stop id="stop1" stop-color="rgba(248, 117, 55, 1)" offset="0%"></stop>                            <stop id="stop2" stop-color="rgba(251, 168, 31, 1)" offset="100%"></stop>                        </linearGradient>                    </defs>                <path fill="url(#sw-gradient)" d="M26.6,-28.4C34.8,-24.8,42,-16.8,42.2,-8.5C42.4,-0.3,35.6,8.2,30.2,17.3C24.8,26.5,20.8,36.4,13.7,40.1C6.6,43.7,-3.7,41.1,-11.6,36.3C-19.4,31.4,-24.8,24.4,-28.4,17C-32,9.5,-33.8,1.6,-33.4,-6.8C-33,-15.2,-30.4,-24.2,-24.5,-28.1C-18.5,-32.1,-9.3,-31,0,-31C9.2,-30.9,18.4,-31.9,26.6,-28.4Z" width="100%" height="100%" transform="translate(50 50)" stroke-width="0" style="transition: all 0.3s ease 0s;"></path>              </svg>